<?xml version="1.0" encoding="UTF-8" standalone="no"?>
<svg width="20px" height="20px" viewBox="0 0 20 20" version="1.1" xmlns="http://www.w3.org/2000/svg" xmlns:xlink="http://www.w3.org/1999/xlink">
    <!-- Generator: Sketch 50.2 (55047) - http://www.bohemiancoding.com/sketch -->
    <title>007__close</title>
    <desc>Created with Sketch.</desc>
    <defs></defs>
    <g id="Welcome" stroke="none" stroke-width="1" fill="none" fill-rule="evenodd">
        <g id="iPhone-8---2" transform="translate(-20.000000, -18.000000)" fill="#F1E1C7" fill-rule="nonzero">
            <g id="header">
                <g id="007__close" transform="translate(20.000000, 18.000000)">
                    <path d="M18.3333333,19.1666667 C18.1666667,19.1666667 17.8333333,19.1666667 17.6666667,19 L1,2.33333333 C0.666666667,2 0.666666667,1.5 1,1.16666667 C1.33333333,0.833333333 1.83333333,0.833333333 2.16666667,1.16666667 L18.8333333,17.8333333 C19.1666667,18.1666667 19.1666667,18.6666667 18.8333333,19 C18.8333333,19.1666667 18.5,19.1666667 18.3333333,19.1666667 Z" id="Shape"></path>
                    <path d="M1.66666667,19.1666667 C1.5,19.1666667 1.16666667,19.1666667 1,19 C0.666666667,18.6666667 0.666666667,18.1666667 1,17.8333333 L17.6666667,1.16666667 C18,0.833333333 18.5,0.833333333 18.8333333,1.16666667 C19.1666667,1.5 19.1666667,2 18.8333333,2.33333333 L2.16666667,19 C2.16666667,19.1666667 1.83333333,19.1666667 1.66666667,19.1666667 Z" id="Shape"></path>
                </g>
            </g>
        </g>
    </g>
</svg>