<?xml version="1.0" encoding="UTF-8" standalone="no"?>
<svg width="28px" height="23px" viewBox="0 0 28 23" version="1.1" xmlns="http://www.w3.org/2000/svg" xmlns:xlink="http://www.w3.org/1999/xlink">
    <!-- Generator: Sketch 50.2 (55047) - http://www.bohemiancoding.com/sketch -->
    <title>Shape</title>
    <desc>Created with Sketch.</desc>
    <defs></defs>
    <g id="Welcome" stroke="none" stroke-width="1" fill="none" fill-rule="evenodd">
        <g id="Desktop-HD-Cop2" transform="translate(-331.000000, -461.000000)" fill="#EC5A0F" fill-rule="nonzero">
            <g id="About" transform="translate(107.000000, 150.000000)">
                <g id="Add-to-fav" transform="translate(224.000000, 311.000000)">
                    <g id="Group-3">
                        <path d="M14,22.6368159 C13.8189055,22.6368159 13.6378109,22.6368159 13.4567164,22.6368159 C11.8268657,22.2746269 6.0318408,20.4636816 1.50447761,13.400995 C-0.668656716,10.1412935 -0.487562189,5.79502488 2.04776119,2.89751244 C3.67761194,1.08656716 6.0318408,0 8.38606965,0 C10.3781095,0 12.3701493,0.724378109 14,1.9920398 C15.6298507,0.724378109 17.440796,0 19.6139303,0 C22.1492537,0 24.3223881,1.08656716 25.9522388,2.89751244 C28.4875622,5.61393035 28.6686567,9.960199 26.4955224,13.400995 C21.9681592,20.4636816 16.1731343,22.2746269 14.5432836,22.6368159 C14.3621891,22.4557214 14.1810945,22.6368159 14,22.6368159 Z M8.38606965,1.62985075 C6.39402985,1.62985075 4.58308458,2.53532338 3.31542289,3.9840796 C1.32338308,6.15721393 1.14228856,9.59800995 2.95323383,12.3144279 C7.11840796,18.8338308 12.3701493,20.4636816 13.8189055,20.8258706 L14,20.8258706 C14,20.8258706 14.1810945,20.8258706 14.1810945,20.8258706 C15.6298507,20.4636816 20.881592,18.8338308 25.0467662,12.3144279 C26.6766169,9.59800995 26.6766169,6.15721393 24.6845771,3.9840796 C23.4169154,2.53532338 21.6059701,1.62985075 19.6139303,1.62985075 C17.8029851,1.62985075 16.1731343,2.35422886 14.9054726,3.62189055 C14.9054726,3.62189055 14.7243781,3.80298507 14.7243781,3.80298507 C14.3621891,4.16517413 13.8189055,4.16517413 13.4567164,3.80298507 C13.4567164,3.80298507 13.2756219,3.62189055 13.2756219,3.62189055 C12.0079602,2.35422886 10.1970149,1.62985075 8.38606965,1.62985075 Z" id="Shape"></path>
                    </g>
                </g>
            </g>
        </g>
    </g>
</svg>