<svg width="189px" height="24px" viewBox="0 0 189 24" version="1.1" xmlns="http://www.w3.org/2000/svg">
    <g id="Welcome" stroke="none" stroke-width="1" fill="none" fill-rule="evenodd">
        <g id="Desktop-HD-Cop2" transform="translate(-101.000000, -28.000000)" fill="#FFFFFF" fill-rule="nonzero">
            <g id="header">
                <g id="Asset-4" transform="translate(101.000000, 28.000000)">
                    <path d="M5.65428571,0.285714286 C5.65428571,2 5.65428571,3.71428571 5.65428571,5.42857143 C5.65428571,5.81428571 5.61714286,5.77428571 6.01142857,5.77428571 L12,5.77428571 C12.2057143,5.77428571 12.22,5.77428571 12.22,5.98285714 C12.22,6.76380952 12.22,7.54380952 12.22,8.32285714 C12.22,8.50857143 12.22,8.51428571 11.9914286,8.51428571 L5.80857143,8.51428571 C5.69714286,8.51428571 5.65428571,8.56571429 5.65714286,8.67142857 C5.65714286,8.72857143 5.65714286,8.78571429 5.65714286,8.84285714 C5.65714286,12.3380952 5.65714286,15.832381 5.65714286,19.3257143 C5.65256843,19.5921934 5.68722525,19.8578956 5.76,20.1142857 C5.85937655,20.477574 6.14453227,20.760553 6.50857143,20.8571429 C6.73611747,20.9279208 6.97312999,20.9635691 7.21142857,20.9628571 L12.2857143,20.9628571 C12.5028571,20.9628571 12.5057143,20.9628571 12.5057143,21.1885714 C12.5057143,22.0257143 12.5057143,22.8657143 12.5057143,23.7028571 L6.16857143,23.7028571 C6.12,23.64 6.04857143,23.6571429 5.98571429,23.6457143 C4.26109423,23.3342417 3.01489424,21.8209125 3.04,20.0685714 C3.04,16.3180952 3.04,12.5666667 3.04,8.81428571 C3.04,8.52857143 3.04,8.51428571 2.75428571,8.51428571 L0.374285714,8.51428571 C0.0542857143,8.51428571 0.0514285714,8.51428571 0.0514285714,8.20571429 L0.0514285714,6.09142857 C0.0514285714,6.03428571 0.0514285714,5.97714286 0.0514285714,5.92 C0.0478721075,5.88113021 0.0617764992,5.84269059 0.0893764003,5.81509069 C0.116976301,5.78749078 0.155415923,5.77358639 0.194285714,5.77714286 L2.76571429,5.77714286 C3.03428571,5.77714286 3.05142857,5.77714286 3.05142857,5.51428571 L3.05142857,0.428571429 C3.05142857,0.38 3.05142857,0.334285714 3.05142857,0.285714286 L5.65428571,0.285714286 Z M3.9,14.06 L3.9,20.06 C3.88045021,20.6153507 4.03531702,21.1628799 4.34285714,21.6257143 C4.85189247,22.4104825 5.73050713,22.8762672 6.66571429,22.8571429 C8.24571429,22.8571429 9.82571429,22.8571429 11.4057143,22.8571429 C11.4542857,22.8571429 11.5,22.8571429 11.5485714,22.8571429 C11.5971429,22.8571429 11.6628571,22.8142857 11.6628571,22.7342857 C11.6628571,22.4771429 11.6628571,22.22 11.6628571,21.9628571 C11.6628571,21.8628571 11.6171429,21.8257143 11.5228571,21.8314286 C11.4285714,21.8371429 11.3885714,21.8314286 11.3228571,21.8314286 C10.0161905,21.8314286 8.71142857,21.8314286 7.40857143,21.8314286 C7.12150031,21.8381001 6.83445535,21.8170501 6.55142857,21.7685714 C5.7218254,21.6571765 5.05414046,21.0319389 4.88857143,20.2114286 C4.82162276,19.9142841 4.78997533,19.6102769 4.79428571,19.3057143 L4.79428571,8 C4.79428571,7.95428571 4.79428571,7.90571429 4.79428571,7.85714286 C4.77714286,7.71428571 4.82571429,7.64 4.98,7.66 C5.04571429,7.66 5.11428571,7.66 5.18,7.66 L10.98,7.66 C11.0371429,7.66 11.0942857,7.66 11.1514286,7.66 C11.2828571,7.67428571 11.3428571,7.62857143 11.3371429,7.48571429 C11.3371429,7.28571429 11.3371429,7.08571429 11.3371429,6.88571429 C11.3371429,6.64 11.3371429,6.63714286 11.0885714,6.63714286 L5.14285714,6.63714286 C5.07714286,6.63714286 5.01142857,6.63714286 4.94285714,6.63714286 C4.87428571,6.63714286 4.78571429,6.6 4.79428571,6.48857143 C4.79428571,6.42 4.79428571,6.35428571 4.79428571,6.28857143 L4.79428571,1.48571429 C4.79428571,1.42 4.79428571,1.35428571 4.79428571,1.28571429 C4.79428571,1.21714286 4.76571429,1.14285714 4.66571429,1.14285714 C4.49428571,1.14285714 4.32285714,1.14285714 4.15428571,1.14285714 C3.90285714,1.14285714 3.9,1.14285714 3.9,1.39142857 L3.9,4.18857143 C3.9,4.93142857 3.9,5.67428571 3.9,6.41714286 C3.9,6.62 3.9,6.62285714 3.69714286,6.62285714 L1.12571429,6.62285714 C0.925714286,6.62285714 0.925714286,6.62285714 0.92,6.83142857 C0.914285714,7.04 0.92,7.23142857 0.92,7.43142857 C0.92,7.63142857 0.92,7.64571429 1.14857143,7.64571429 L3.57714286,7.64571429 C3.92571429,7.64571429 3.9,7.59714286 3.9,7.96285714 L3.9,14.06 Z" id="Shape"></path>
                    <path d="M19.3685714,23.7142857 C19.28,23.6228571 19.1542857,23.6457143 19.0485714,23.62 C17.4611575,23.2395724 16.3391366,21.8237731 16.3314286,20.1914286 C16.3314286,17.62 16.3314286,15.0485714 16.3314286,12.4771429 C16.3314286,11.4114286 16.3314286,10.3457143 16.3314286,9.27714286 C16.3405352,7.35447021 17.8861041,5.79239156 19.8085714,5.76285714 C23.1152381,5.76285714 26.42,5.76285714 29.7228571,5.76285714 C31.4099726,5.7804575 32.847741,6.99177734 33.1514286,8.65142857 C33.1918346,8.88540882 33.2109604,9.12256854 33.2085714,9.36 L33.2085714,15.4285714 C33.2085714,15.7142857 33.2085714,15.7142857 32.9228571,15.7142857 L19.2628571,15.7142857 C18.9514286,15.7142857 18.9514286,15.7142857 18.9514286,16.0228571 C18.9514286,17.1171429 18.9514286,18.2114286 18.9514286,19.3085714 C18.9408798,19.5649108 18.9649053,19.8215031 19.0228571,20.0714286 C19.1135995,20.4830635 19.4343963,20.8049743 19.8457143,20.8971429 C20.019749,20.945736 20.1993276,20.9716644 20.38,20.9742857 C20.5314286,20.9742857 20.6857143,20.9742857 20.8371429,20.9742857 L32.8371429,20.9742857 C33.24,20.9742857 33.2,20.9285714 33.2,21.3428571 C33.2,22.1342857 33.2,22.9228571 33.2,23.7142857 L19.3685714,23.7142857 Z M25.2228571,14.8571429 L26.4228571,14.8571429 C28.3085714,14.8571429 30.1942857,14.8571429 32.08,14.8571429 C32.34,14.8571429 32.3428571,14.8571429 32.3457143,14.6542857 C32.3457143,12.8457143 32.36,11.0371429 32.3457143,9.22571429 C32.3145189,7.78019853 31.1286769,6.62743791 29.6828571,6.63714286 L19.8485714,6.63714286 C19.0932327,6.62848407 18.3722923,6.95238484 17.8771429,7.52285714 C17.4078816,8.04417097 17.1599072,8.72763758 17.1857143,9.42857143 C17.1857143,12.9714286 17.1857143,16.5142857 17.1857143,20.0571429 C17.1857143,20.1314286 17.1857143,20.2085714 17.1857143,20.2857143 C17.2042583,20.9273351 17.4621016,21.5388213 17.9085714,22 C18.4353578,22.5667877 19.1808073,22.8791269 19.9542857,22.8571429 L32.0371429,22.8571429 C32.0857143,22.8571429 32.1342857,22.8571429 32.18,22.8571429 C32.3085714,22.8571429 32.3457143,22.8085714 32.34,22.6914286 C32.34,22.52 32.34,22.3485714 32.34,22.1771429 C32.34,21.78 32.3828571,21.8342857 31.9857143,21.8342857 C28.2238095,21.8342857 24.4619048,21.8342857 20.7,21.8342857 C20.4053225,21.8419156 20.1106014,21.8208641 19.82,21.7714286 C19.01131,21.6583789 18.3570747,21.0564825 18.1771429,20.26 C18.1020512,19.9448018 18.0693816,19.6209883 18.08,19.2971429 C18.08,17.9171429 18.08,16.5371429 18.08,15.1542857 C18.08,14.8114286 18.06,14.8685714 18.3914286,14.8685714 L25.2228571,14.8571429 Z" id="Shape"></path>
                    <path d="M24.76,13.8685714 L18.4742857,13.8685714 C18.4057143,13.8685714 18.34,13.8685714 18.2742857,13.8685714 C18.1228571,13.8857143 18.0742857,13.82 18.0771429,13.6742857 C18.0771429,12.36 18.0542857,11.0457143 18.1,9.73428571 C18.1067151,9.54076025 18.1374261,9.34881662 18.1914286,9.16285714 C18.3806684,8.34467472 19.0701115,7.73796474 19.9057143,7.65428571 C20.1408978,7.61612589 20.3788923,7.59796568 20.6171429,7.6 C23.3771429,7.6 26.1390476,7.6 28.9028571,7.6 C29.2547746,7.59394752 29.6058049,7.63722522 29.9457143,7.72857143 C30.8145239,7.96918103 31.4192538,8.75567943 31.4285714,9.65714286 C31.4285714,9.84571429 31.4457143,10.0371429 31.4485714,10.2285714 L31.4485714,13.5428571 C31.4485714,13.6 31.4485714,13.6571429 31.4485714,13.7142857 C31.4485714,13.8428571 31.3914286,13.88 31.2742857,13.8714286 L24.76,13.8714286 L24.76,13.8685714 Z M24.76,13.0114286 L30.2971429,13.0114286 C30.5828571,13.0114286 30.5828571,13.0114286 30.5828571,12.7257143 C30.5828571,11.8514286 30.5828571,10.9742857 30.5828571,10.1 C30.5828571,9.96571429 30.5828571,9.83142857 30.5828571,9.7 C30.5868389,9.11161192 30.158727,8.60931014 29.5771429,8.52 C29.3527602,8.47913174 29.125215,8.45809815 28.8971429,8.45714286 L20.7142857,8.45714286 C20.4953291,8.45519684 20.2765587,8.47048211 20.06,8.50285714 C19.5425937,8.53903555 19.1144268,8.91910697 19.0171429,9.42857143 C18.98472,9.54791538 18.9664987,9.67066954 18.9628571,9.79428571 C18.9628571,10.08 18.9628571,10.3457143 18.9628571,10.6228571 C18.9628571,11.3257143 18.9628571,12.0285714 18.9628571,12.7342857 C18.9628571,13.02 18.9628571,13.02 19.2657143,13.02 L24.7628571,13.02 L24.76,13.0114286 Z" id="Shape"></path>
                    <path d="M37.0828571,23.7142857 L37.0828571,21.2857143 C37.0828571,20.9514286 37.0657143,20.9742857 37.3914286,20.9742857 L49.5057143,20.9742857 C49.686182,20.9725405 49.8660614,20.9534044 50.0428571,20.9171429 C50.584589,20.839848 50.9955105,20.3893918 51.0228571,19.8428571 C51.0985762,19.0656494 51.0985762,18.282922 51.0228571,17.5057143 C50.9942192,16.9052444 50.5146799,16.4244692 49.9142857,16.3942857 C49.6688428,16.3633202 49.4216737,16.3480511 49.1742857,16.3485714 L40.4885714,16.3485714 C38.5538772,16.3517664 36.9798565,14.7917881 36.9657143,12.8571429 C36.9657143,11.8171429 36.9657143,10.78 36.9657143,9.74285714 C36.9872206,8.00303496 38.2766707,6.53995829 40,6.3 C40.1981681,6.27705264 40.3977357,6.26845882 40.5971429,6.27428571 C44.8047619,6.27428571 49.0142857,6.27428571 53.2257143,6.27428571 L53.3971429,6.27428571 C53.4942857,6.27428571 53.5314286,6.32571429 53.5314286,6.41714286 C53.5314286,6.50857143 53.5314286,6.62571429 53.5314286,6.73142857 L53.5314286,8.67428571 C53.5314286,8.96 53.5314286,8.96 53.2257143,8.96 L41.2257143,8.96 C41.0451254,8.95337549 40.8643153,8.96389883 40.6857143,8.99142857 C39.9314286,9.13428571 39.6771429,9.51142857 39.6171429,10.1714286 C39.5585734,10.9217159 39.5585734,11.675427 39.6171429,12.4257143 C39.6265283,13.0718199 40.1538283,13.5902042 40.8,13.5885714 C40.9713213,13.5971482 41.1429644,13.5971482 41.3142857,13.5885714 C44.2371429,13.5885714 47.16,13.5714286 50.0828571,13.5885714 C51.0324299,13.5831886 51.9445454,13.9586135 52.6151996,14.6308786 C53.2858538,15.3031437 53.6590895,16.2161571 53.6514286,17.1657143 C53.6514286,18.1447619 53.6514286,19.1257143 53.6514286,20.1085714 C53.6739935,21.8591 52.4066729,23.3601627 50.6771429,23.6314286 C50.6291324,23.6369831 50.5882926,23.6689927 50.5714286,23.7142857 L37.0828571,23.7142857 Z M46.34,7.12571429 L42.1142857,7.12571429 C41.5428571,7.12571429 40.9514286,7.12571429 40.3714286,7.12571429 C38.9621311,7.17883679 37.8416339,8.32696958 37.8228571,9.73714286 C37.8228571,10.7857143 37.8228571,11.8314286 37.8228571,12.88 C37.825124,13.0987026 37.8578186,13.3160254 37.92,13.5257143 C38.2344244,14.6859532 39.2893477,15.4900392 40.4914286,15.4857143 C43.4266667,15.4857143 46.36,15.4857143 49.2914286,15.4857143 C49.5484799,15.4856799 49.8052449,15.5028612 50.06,15.5371429 C51.0431249,15.6254209 51.8148229,16.417746 51.8771429,17.4028571 C51.9571351,18.2380891 51.9571351,19.0790537 51.8771429,19.9142857 C51.8134349,20.8765593 51.0721119,21.6563301 50.1142857,21.7685714 C49.8306424,21.8110776 49.5438824,21.8292391 49.2571429,21.8228571 L38.0657143,21.8228571 C37.9857143,21.8228571 37.94,21.8514286 37.94,21.9371429 L37.94,22.7371429 C37.9365354,22.7658474 37.9460371,22.7946035 37.9659218,22.8155929 C37.9858065,22.8365823 38.0140073,22.8476234 38.0428571,22.8457143 L50.0142857,22.8457143 C50.2705842,22.8496753 50.5262392,22.8189198 50.7742857,22.7542857 C51.9603141,22.4463547 52.7847764,21.3710203 52.7742857,20.1457143 C52.7885714,19.1457143 52.7742857,18.1457143 52.7742857,17.1485714 C52.7754831,16.8139737 52.7124376,16.4822569 52.5885714,16.1714286 C52.1789929,15.1146794 51.1501338,14.4287734 50.0171429,14.4571429 L41.2742857,14.4571429 C41.0857143,14.4571429 40.8942857,14.4571429 40.7028571,14.44 C39.7914285,14.4165698 39.0112036,13.7796995 38.8057143,12.8914286 C38.7564335,12.7046391 38.7276918,12.5130278 38.72,12.32 C38.7085714,11.6342857 38.7085714,10.9485714 38.72,10.2628571 C38.7260873,10.0826608 38.7509844,9.90359359 38.7942857,9.72857143 C38.933312,8.96591698 39.5130205,8.35924521 40.2685714,8.18571429 C40.5552876,8.11398078 40.8502093,8.08035779 41.1457143,8.08571429 C44.8485714,8.08571429 48.552381,8.08571429 52.2571429,8.08571429 C52.3237406,8.08142852 52.3905451,8.08142852 52.4571429,8.08571429 C52.6171429,8.10571429 52.6514286,8.02285714 52.6457143,7.88571429 C52.64,7.74857143 52.6457143,7.58 52.6457143,7.42857143 C52.6457143,7.06857143 52.6771429,7.1 52.3285714,7.1 L46.34,7.12571429 Z" id="Shape"></path>
                    <path d="M63.54,23.7142857 C63.4314286,23.62 63.2857143,23.6485714 63.16,23.6171429 C61.7091057,23.2740683 60.6244019,22.0651704 60.44,20.5857143 C60.4209899,20.4158699 60.4105006,20.2451798 60.4085714,20.0742857 L60.4085714,8.79714286 C60.4085714,8.51142857 60.4085714,8.51142857 60.1228571,8.51142857 L57.7142857,8.51142857 C57.4485714,8.51142857 57.4457143,8.51142857 57.4457143,8.24857143 C57.4457143,7.50571429 57.4457143,6.76571429 57.4457143,6.02285714 C57.4457143,5.77714286 57.4457143,5.77428571 57.7,5.77142857 L60.1828571,5.77142857 C60.4171429,5.77142857 60.4228571,5.77142857 60.4228571,5.53428571 C60.4228571,3.82 60.4228571,2.10571429 60.4228571,0.391428571 C60.4228571,0.351428571 60.4228571,0.314285714 60.4228571,0.277142857 L63.0514286,0.277142857 C63.0514286,1.99142857 63.0514286,3.70571429 63.0514286,5.42 C63.0514286,5.80571429 63.0142857,5.76571429 63.4085714,5.76571429 L69.2342857,5.76571429 C69.58,5.76571429 69.6,5.70285714 69.6,6.11714286 C69.6,6.70857143 69.6,7.29714286 69.6,7.88857143 L69.6,8.26 C69.6,8.50285714 69.6,8.50285714 69.34,8.50571429 L63.1971429,8.50571429 C63.0857143,8.50571429 63.0457143,8.56 63.0485714,8.66285714 C63.0485714,8.72 63.0485714,8.77714286 63.0485714,8.83428571 C63.0485714,12.3485714 63.0485714,15.8628571 63.0485714,19.3771429 C63.0445273,19.6346121 63.0811691,19.8911047 63.1571429,20.1371429 C63.2564624,20.482888 63.5260827,20.7535867 63.8714286,20.8542857 C64.0988344,20.9259886 64.3358436,20.9625998 64.5742857,20.9628571 L69.66,20.9628571 C69.9057143,20.9628571 69.9114286,20.9628571 69.9085714,21.2171429 C69.9085714,22.0457143 69.9085714,22.8742857 69.9085714,23.7028571 L63.54,23.7142857 Z M61.2714286,14.0742857 L61.2714286,20.1314286 C61.26119,20.6492883 61.4075804,21.1581691 61.6914286,21.5914286 C62.1896791,22.394898 63.0747692,22.8759961 64.02,22.8571429 C65.6114286,22.8571429 67.2028571,22.8571429 68.7914286,22.8571429 L68.9342857,22.8571429 C69.0085714,22.8571429 69.0342857,22.8114286 69.0342857,22.7485714 L69.0342857,21.9485714 C69.0342857,21.8628571 68.9914286,21.8314286 68.9085714,21.8342857 L68.7085714,21.8342857 C67.4057143,21.8342857 66.1019048,21.8342857 64.7971429,21.8342857 C64.5013874,21.8424918 64.2055671,21.8204729 63.9142857,21.7685714 C63.0948062,21.65464 62.435124,21.0384031 62.2657143,20.2285714 C62.2010238,19.9601446 62.1703071,19.6846548 62.1742857,19.4085714 L62.1742857,7.98 C62.1742857,7.62285714 62.1342857,7.65428571 62.4914286,7.65428571 L68.3771429,7.65428571 C68.4428571,7.65428571 68.5085714,7.65428571 68.5771429,7.65428571 C68.6457143,7.65428571 68.7142857,7.61428571 68.7142857,7.52 C68.7142857,7.27428571 68.7142857,7.02571429 68.7142857,6.77714286 C68.7142857,6.66571429 68.6685714,6.62285714 68.56,6.62857143 C68.4514286,6.63428571 68.4285714,6.62857143 68.36,6.62857143 L62.5342857,6.62857143 C62.4571429,6.62857143 62.38,6.62857143 62.3057143,6.62857143 C62.2314286,6.62857143 62.1685714,6.58571429 62.1742857,6.49142857 C62.18,6.39714286 62.1742857,6.35714286 62.1742857,6.29142857 L62.1742857,2.18 C62.1742857,1.89428571 62.1742857,1.60857143 62.1742857,1.32285714 C62.1742857,1.20857143 62.1485714,1.14571429 62.0171429,1.15142857 C61.8171429,1.15142857 61.6171429,1.15142857 61.4171429,1.15142857 C61.3057143,1.15142857 61.2657143,1.2 61.2714286,1.30571429 C61.2771429,1.41142857 61.2714286,1.44 61.2714286,1.50571429 C61.2714286,3.05809524 61.2714286,4.61047619 61.2714286,6.16285714 C61.2714286,6.31142857 61.3428571,6.49714286 61.2314286,6.6 C61.12,6.70285714 60.9457143,6.63142857 60.7914286,6.63142857 L58.62,6.63142857 C58.2485714,6.63142857 58.2942857,6.59142857 58.2914286,6.97142857 C58.2914286,7.10571429 58.2914286,7.24 58.2914286,7.37142857 C58.2914286,7.67142857 58.2657143,7.65714286 58.5771429,7.65714286 L61.0628571,7.65714286 C61.2828571,7.65714286 61.2828571,7.65714286 61.2885714,7.87428571 L61.2885714,14.0742857 L61.2714286,14.0742857 Z" id="Shape"></path>
                    <path d="M76.74,23.7142857 C76.6428571,23.6228571 76.5085714,23.6428571 76.3914286,23.6142857 C74.9869653,23.2763106 73.92795,22.1200964 73.7142857,20.6914286 C73.6975735,20.5406094 73.6908921,20.3888472 73.6942857,20.2371429 C73.6942857,18.4542857 73.6942857,16.6742857 73.6942857,14.8942857 C73.7106027,13.1083559 75.0783215,11.6257339 76.8571429,11.4657143 C77.1057143,11.4457143 77.3514286,11.4371429 77.6,11.4371429 C80.0171429,11.4371429 82.4361905,11.4371429 84.8571429,11.4371429 C85.3710607,11.4321793 85.8832992,11.4965695 86.38,11.6285714 C86.840458,11.7510902 87.2824688,11.9346208 87.6942857,12.1742857 C87.7422147,12.2046721 87.7918171,12.2323349 87.8428571,12.2571429 C87.8428571,12.2571429 87.88,12.2571429 87.9028571,12.2571429 C87.96,12.2085714 87.9371429,12.1371429 87.9371429,12.0742857 C87.9371429,11.3885714 87.9371429,10.7028571 87.9371429,10.0171429 C87.9355317,9.83651648 87.9154269,9.65652993 87.8771429,9.48 C87.7976922,9.01924372 87.4397137,8.65670498 86.98,8.57142857 C86.7927808,8.52674973 86.601046,8.50374155 86.4085714,8.50285714 C85.1885714,8.50285714 83.9685714,8.50285714 82.7514286,8.48285714 C79.9885714,8.43428571 77.2285714,8.45428571 74.4657143,8.42857143 C74.4085714,8.42857143 74.3514286,8.42857143 74.2942857,8.42857143 C74.2602136,8.43117076 74.226705,8.41876312 74.2025424,8.39460049 C74.1783797,8.37043785 74.1659721,8.33692926 74.1685714,8.30285714 L74.1685714,8.16 C74.1685714,7.44571429 74.1685714,6.73142857 74.1685714,6.01714286 C74.1685714,5.77428571 74.1685714,5.77142857 74.4257143,5.76857143 L75.0828571,5.76857143 C79.0342857,5.76857143 82.9885714,5.78285714 86.94,5.76857143 C88.6587112,5.75835355 90.1518713,6.94812252 90.5257143,8.62571429 C90.5799485,8.88707442 90.6086548,9.15308658 90.6114286,9.42 C90.6114286,11.1514286 90.6114286,12.8857143 90.5942857,14.62 C90.5514286,17.5028571 90.5771429,20.3885714 90.56,23.2742857 C90.56,23.3314286 90.56,23.3885714 90.56,23.4457143 C90.56,23.66 90.56,23.6628571 90.3314286,23.6628571 C89.6085714,23.6628571 88.8828571,23.6628571 88.16,23.6628571 C87.9457143,23.6628571 87.9428571,23.6628571 87.94,23.4371429 C87.94,23.2885714 87.94,23.1514286 87.94,22.9971429 C87.8546022,22.9804568 87.766255,23.0035954 87.7,23.06 C87.0648063,23.3900442 86.3723829,23.5956377 85.66,23.6657143 C85.6121326,23.6625313 85.5652349,23.6802482 85.5314286,23.7142857 L76.74,23.7142857 Z M88.8057143,21.1942857 L88.8057143,21.5342857 C88.8057143,21.8971429 88.8057143,22.26 88.8057143,22.62 C88.8057143,22.7771429 88.86,22.82 89.0057143,22.8114286 C89.1514286,22.8028571 89.3657143,22.8114286 89.5457143,22.8114286 C89.7257143,22.8114286 89.72,22.7514286 89.7171429,22.6228571 C89.7171429,22.3371429 89.7171429,22.0514286 89.7171429,21.7657143 L89.7428571,14.6542857 L89.76,9.42857143 C89.7630726,8.6827814 89.4675796,7.9667737 88.9394174,7.44022178 C88.4112552,6.91366986 87.6943486,6.62036448 86.9485714,6.62571429 C83.0914286,6.64571429 79.2342857,6.62571429 75.3771429,6.62571429 C75.32,6.62571429 75.2628571,6.62571429 75.2057143,6.62571429 C75.0628571,6.61142857 75.0285714,6.68285714 75.0342857,6.81142857 C75.0342857,6.98285714 75.0342857,7.15428571 75.0342857,7.32571429 C75.0342857,7.57428571 75.0342857,7.57714286 75.2857143,7.57714286 L82.3114286,7.62571429 C83.54,7.62571429 84.7657143,7.62571429 85.9942857,7.64857143 C86.346816,7.6356896 86.6997788,7.65577692 87.0485714,7.70857143 C87.7949966,7.80951587 88.4183884,8.32753009 88.6542857,9.04285714 C88.7587264,9.35985758 88.8098962,9.69197838 88.8057143,10.0257143 L88.8057143,13.9685714 C88.8057143,14.0257143 88.8428571,14.1028571 88.7514286,14.1457143 C88.52,13.9342857 88.2885714,13.72 88.0571429,13.5114286 C87.2935982,12.793284 86.2984927,12.3717322 85.2514286,12.3228571 C85.1285714,12.3228571 85.0057143,12.3057143 84.88,12.3057143 C82.3571429,12.3057143 79.8342857,12.3057143 77.3114286,12.3057143 C76.5748229,12.2843384 75.8617924,12.5665698 75.3393654,13.0862956 C74.8169384,13.6060213 74.5310144,14.3175791 74.5485714,15.0542857 C74.5914286,16.74 74.5485714,18.4257143 74.5485714,20.1114286 C74.541475,20.2921278 74.5529639,20.4730779 74.5828571,20.6514286 C74.8134059,21.9485362 75.9542756,22.8845101 77.2714286,22.8571429 C79.8142857,22.8571429 82.3542857,22.8571429 84.8971429,22.8571429 C85.3257793,22.8578233 85.753164,22.8108684 86.1714286,22.7171429 C86.9157907,22.5506696 87.6088341,22.2065986 88.1914286,21.7142857 C88.3771429,21.5457143 88.5714286,21.3914286 88.8057143,21.1942857 Z" id="Shape"></path>
                    <path d="M81.3685714,13.2971429 L84.8257143,13.2971429 C85.2742611,13.290105 85.7209902,13.3557154 86.1485714,13.4914286 C87.4966484,13.8911322 88.5073262,15.012146 88.7657143,16.3942857 C88.7988505,16.5529812 88.8122853,16.715158 88.8057143,16.8771429 C88.8057143,17.2771429 88.8057143,17.6771429 88.8057143,18.0771429 C88.7885714,19.62 88.0457143,20.7114286 86.7057143,21.42 C86.189093,21.6901711 85.6144265,21.8304055 85.0314286,21.8285714 L77.7457143,21.8285714 C77.5263542,21.8275532 77.3078163,21.8016738 77.0942857,21.7514286 C76.2011489,21.5748636 75.5399621,20.817376 75.4857143,19.9085714 C75.4675721,19.7386861 75.4580361,19.5679918 75.4571429,19.3971429 C75.4571429,18.1857143 75.4571429,16.9771429 75.4571429,15.7685714 C75.4517243,15.4726117 75.4824273,15.1770961 75.5485714,14.8885714 C75.7482949,13.9779719 76.5506553,13.3261282 77.4828571,13.3171429 C77.7971429,13.2942857 78.1114286,13.3 78.4257143,13.3 L81.3685714,13.2971429 Z M81.4171429,14.1542857 L78.02,14.1542857 C77.8657143,14.1542857 77.7142857,14.1542857 77.5628571,14.1542857 C77.238371,14.1496788 76.925665,14.2757608 76.6951232,14.504153 C76.4645815,14.7325451 76.3355758,15.0440563 76.3371429,15.3685714 C76.3371429,15.4714286 76.3228571,15.5771429 76.3228571,15.6828571 L76.3228571,19.4685714 C76.3228571,19.5828571 76.3285714,19.6971429 76.34,19.8114286 C76.357995,20.3896051 76.7992058,20.8661615 77.3742857,20.9285714 C77.5903574,20.9652016 77.8095053,20.9805133 78.0285714,20.9742857 L84.7685714,20.9742857 C85.0153931,20.9775383 85.2620318,20.959375 85.5057143,20.92 C86.907745,20.7010514 87.9431072,19.4961562 87.9485714,18.0771429 C87.9485714,17.7057143 87.9485714,17.3342857 87.9485714,16.9628571 C87.9367667,16.0192393 87.4402085,15.1481036 86.6342857,14.6571429 C86.1060554,14.3146903 85.4864436,14.1403622 84.8571429,14.1571429 C83.7142857,14.1657143 82.5714286,14.16 81.4285714,14.16 L81.4171429,14.1542857 Z" id="Shape"></path>
                    <path d="M94.3971429,23.7142857 C94.3971429,23.0190476 94.3971429,22.3238095 94.3971429,21.6285714 C94.3971429,17.9904762 94.3971429,14.3533333 94.3971429,10.7171429 C94.3971429,9.54952381 94.3971429,8.37904762 94.3971429,7.20571429 C94.3971429,6.84285714 94.3771429,6.48285714 94.3742857,6.12285714 C94.3742857,5.83714286 94.3742857,5.82 94.66,5.78857143 C94.9334268,5.74962964 95.2096076,5.73338371 95.4857143,5.74 C95.9142857,5.76285714 96.3428571,5.75714286 96.7685714,5.78 C96.9742857,5.78 96.9771429,5.78 96.98,5.99142857 C96.9828571,6.20285714 96.98,6.39142857 96.98,6.59142857 C96.98,6.68571429 97.0314286,6.70571429 97.1085714,6.66857143 C97.1517016,6.64803623 97.1936697,6.62514452 97.2342857,6.6 C98.0176038,6.16355922 98.8839922,5.8968284 99.7771429,5.81714286 C100.148571,5.78 100.52,5.77714286 100.888571,5.77428571 L105.688571,5.77428571 C106.017143,5.77428571 106.005714,5.74571429 106.005714,6.07714286 L106.005714,8.16285714 C106.005714,8.48857143 106.022857,8.46571429 105.688571,8.46571429 L100.717143,8.46571429 C99.5602101,8.46987292 98.4530897,8.93700363 97.6428571,9.76285714 C97.2022958,10.1825733 96.9594896,10.7688362 96.9742857,11.3771429 C96.9742857,15.3771429 96.9742857,19.3666667 96.9742857,23.3457143 C96.9742857,23.4685714 96.9742857,23.5942857 96.9742857,23.7171429 L94.3971429,23.7142857 Z M96.1685714,9.36285714 L96.12,9.34285714 L96.12,7.45714286 C96.12,7.24 96.12,7.02 96.12,6.8 C96.12,6.67142857 96.0914286,6.60857143 95.9485714,6.61428571 C95.8057143,6.62 95.6257143,6.61428571 95.4657143,6.61428571 C95.2285714,6.61428571 95.2228571,6.61428571 95.2257143,6.84857143 C95.2257143,7.95428571 95.24,9.06 95.24,10.1628571 C95.24,13.9819048 95.2457143,17.8 95.2571429,21.6171429 C95.2571429,21.98 95.2571429,22.3428571 95.2571429,22.7028571 C95.2571429,22.8257143 95.2971429,22.8771429 95.42,22.8714286 C95.5428571,22.8657143 95.6485714,22.8714286 95.7628571,22.8714286 C96.16,22.8714286 96.1142857,22.9285714 96.1142857,22.5285714 C96.1142857,18.8047619 96.1142857,15.0809524 96.1142857,11.3571429 C96.0999457,10.3654831 96.5702345,9.42917131 97.3742857,8.84857143 C98.3534031,8.02626691 99.5988936,7.58943093 100.877143,7.62 C102.077143,7.64285714 103.277143,7.62 104.477143,7.62 C104.648571,7.62 104.82,7.62 104.991429,7.62 C105.1,7.62 105.145714,7.58857143 105.142857,7.47428571 C105.142857,7.27428571 105.142857,7.07428571 105.142857,6.87428571 C105.142857,6.67428571 105.142857,6.64285714 104.908571,6.64285714 C103.414286,6.64285714 101.917143,6.64285714 100.422857,6.64285714 C99.28111,6.63191546 98.1637321,6.9731148 97.2228571,7.62 C97.0302905,7.74363204 96.8775075,7.92022535 96.7828571,8.12857143 C96.6828571,8.36285714 96.5571429,8.58857143 96.4428571,8.82 C96.3571429,8.99714286 96.2628571,9.18 96.1685714,9.36285714 Z" id="Shape"></path>
                    <path d="M112.857143,23.7142857 C112.748571,23.62 112.608571,23.6371429 112.482857,23.6085714 C110.936045,23.2097228 109.84692,21.8257967 109.822857,20.2285714 C109.822857,16.5733333 109.822857,12.9171429 109.822857,9.26 C109.854141,7.54096228 111.117963,6.09383749 112.817143,5.83142857 C113.013947,5.80284845 113.21256,5.78852544 113.411429,5.78857143 C116.64,5.78857143 119.868571,5.80285714 123.094286,5.78857143 C124.90574,5.76709213 126.444927,7.10834839 126.671429,8.90571429 C126.687187,9.05659684 126.692914,9.20835893 126.688571,9.36 C126.688571,12.96 126.688571,16.56 126.688571,20.1571429 C126.698729,21.8811676 125.470166,23.3638749 123.774286,23.6742857 C123.728571,23.6742857 123.677143,23.6742857 123.651429,23.7314286 L112.857143,23.7142857 Z M110.68,14.7142857 C110.68,16.5228571 110.7,18.3314286 110.68,20.1428571 C110.674678,20.8584159 110.954229,21.5466989 111.456993,22.0558951 C111.959757,22.5650913 112.644431,22.8533685 113.36,22.8571429 C116.617143,22.8571429 119.873333,22.8571429 123.128571,22.8571429 C123.852737,22.8690683 124.550391,22.5848718 125.06009,22.0703183 C125.569789,21.5557648 125.84736,20.855449 125.828571,20.1314286 C125.828571,16.5428571 125.828571,12.9542857 125.828571,9.36571429 C125.831569,9.21290238 125.822973,9.06008317 125.802857,8.90857143 C125.608511,7.57454305 124.450666,6.59435671 123.102857,6.62285714 C119.874286,6.62285714 116.648571,6.62285714 113.42,6.62285714 C112.688958,6.61435984 111.985337,6.90081701 111.468109,7.41750746 C110.95088,7.93419792 110.663692,8.63752144 110.671429,9.36857143 C110.7,11.1428571 110.677143,12.9342857 110.677143,14.7142857 L110.68,14.7142857 Z" id="Shape"></path>
                    <path d="M111.58,14.7142857 L111.58,10.0857143 C111.575235,9.81915619 111.599182,9.55285973 111.651429,9.29142857 C111.808057,8.42820069 112.50898,7.76782761 113.38,7.66285714 C113.614565,7.62763581 113.851378,7.60949287 114.088571,7.60857143 C116.852381,7.60857143 119.614286,7.60857143 122.374286,7.60857143 C122.688591,7.60446243 123.002256,7.63803514 123.308571,7.70857143 C124.109966,7.86692624 124.727918,8.50768117 124.857143,9.31428571 C124.908052,9.56626668 124.931996,9.82295057 124.928571,10.08 L124.928571,19.3942857 C124.929395,19.6414986 124.907397,19.8882597 124.862857,20.1314286 C124.715698,20.985624 124.03506,21.6478039 123.177143,21.7714286 C122.905247,21.8166002 122.629888,21.8376345 122.354286,21.8342857 C119.6,21.8342857 116.847619,21.8342857 114.097143,21.8342857 C113.801739,21.8406764 113.506552,21.8138413 113.217143,21.7542857 C112.311747,21.5787792 111.643751,20.8069251 111.6,19.8857143 C111.585714,19.7257143 111.58,19.5628571 111.58,19.4 C111.58,17.8371429 111.58,16.2771429 111.58,14.7142857 Z M124.065714,14.7142857 L124.065714,10.2 C124.065714,10.04 124.065714,9.87714286 124.065714,9.71714286 C124.072762,9.12752505 123.64547,8.62232196 123.062857,8.53142857 C122.858184,8.48699461 122.649437,8.46401332 122.44,8.46285714 L114.06,8.46285714 C113.85067,8.46321833 113.641939,8.48524037 113.437143,8.52857143 C112.966692,8.5996172 112.59286,8.9608351 112.505714,9.42857143 C112.447329,9.71804886 112.424303,10.013544 112.437143,10.3085714 C112.437143,13.28 112.437143,16.2504762 112.437143,19.22 C112.437143,19.4085714 112.437143,19.6 112.454286,19.7914286 C112.460793,20.3789786 112.904584,20.8693552 113.488571,20.9342857 C113.714096,20.9722603 113.942855,20.9875747 114.171429,20.98 L122.34,20.98 C122.587207,20.9885573 122.834573,20.9684228 123.077143,20.92 C123.524747,20.8470384 123.886861,20.5163149 124,20.0771429 C124.057919,19.8359367 124.081959,19.5878389 124.071429,19.34 L124.065714,14.7142857 Z" id="Shape"></path>
                    <path d="M130.571429,23.7142857 C130.571429,22.9057143 130.571429,22.0942857 130.571429,21.2857143 C130.571429,20.9542857 130.551429,20.9742857 130.88,20.9742857 L142.994286,20.9742857 C143.174932,20.9730006 143.354952,20.952892 143.531429,20.9142857 C144.065298,20.845156 144.474466,20.4059904 144.505714,19.8685714 C144.592856,19.063303 144.592856,18.2509827 144.505714,17.4457143 C144.459549,16.9001623 144.032963,16.4639897 143.488571,16.4057143 C143.262724,16.3694372 143.03445,16.3503349 142.805714,16.3485714 C139.882857,16.3485714 136.96,16.3485714 134.034286,16.3485714 C133.159094,16.3676527 132.309006,16.0553753 131.654286,15.4742857 C130.917751,14.8608349 130.483172,13.9583278 130.462857,13 C130.431429,11.8571429 130.425714,10.7342857 130.462857,9.6 C130.532306,8.01128554 131.667369,6.67059506 133.222857,6.34 C133.505028,6.28440379 133.792519,6.26044623 134.08,6.26857143 L146.877143,6.26857143 C146.974286,6.26857143 147.011429,6.32285714 147.011429,6.41142857 C147.011429,6.5 147.011429,6.54571429 147.011429,6.61142857 L147.011429,8.52571429 C147.011429,9.03142857 147.04,8.96 146.588571,8.96 L134.76,8.96 C134.617143,8.96 134.474286,8.96 134.331429,8.96 C133.58,9.01714286 133.145714,9.41428571 133.091429,10.1628571 C133.039996,10.9143591 133.039996,11.668498 133.091429,12.42 C133.092168,12.7349508 133.218784,13.0365363 133.443093,13.2576251 C133.667401,13.4787139 133.970786,13.6009567 134.285714,13.5971429 C134.454286,13.5971429 134.628571,13.5971429 134.8,13.5971429 C137.722857,13.5971429 140.645714,13.58 143.568571,13.5971429 C144.943278,13.5594137 146.207508,14.3467455 146.78,15.5971429 C147.018354,16.0762071 147.139768,16.6049439 147.134286,17.14 C147.134286,18.12 147.134286,19.1028571 147.134286,20.0828571 C147.167285,21.8437627 145.896767,23.3593605 144.157143,23.6342857 C144.118697,23.6360257 144.083052,23.6548965 144.06,23.6857143 L130.571429,23.7142857 Z M139.828571,7.12571429 L138.942857,7.12571429 C137.305714,7.12571429 135.665714,7.12571429 134.028571,7.12571429 C133.301547,7.11947917 132.602733,7.40671398 132.090246,7.92242724 C131.57776,8.43814049 131.294916,9.13874374 131.305714,9.86571429 C131.322857,10.8371429 131.305714,11.8085714 131.305714,12.78 C131.303043,13.0367814 131.33671,13.2926497 131.405714,13.54 C131.719474,14.700279 132.775208,15.5038092 133.977143,15.4971429 C136.92,15.4971429 139.861905,15.4971429 142.802857,15.4971429 C143.050421,15.4970099 143.297691,15.5141947 143.542857,15.5485714 C144.533294,15.6350578 145.309831,16.4359378 145.365714,17.4285714 C145.445707,18.2638034 145.445707,19.104768 145.365714,19.94 C145.300686,20.9011683 144.559686,21.6793982 143.602857,21.7914286 C143.319204,21.8338379 143.032452,21.8519988 142.745714,21.8457143 L131.808571,21.8457143 C131.74,21.8457143 131.674286,21.8457143 131.608571,21.8457143 C131.474286,21.8457143 131.417143,21.88 131.422857,22.0228571 C131.422857,22.2314286 131.422857,22.44 131.422857,22.6485714 C131.422857,22.8571429 131.422857,22.8714286 131.642857,22.8714286 C132.385714,22.8714286 133.128571,22.8714286 133.871429,22.8714286 C137.088571,22.8714286 140.306667,22.8714286 143.525714,22.8714286 C144.245048,22.8883588 144.940797,22.6143974 145.455466,22.1115606 C145.970134,21.6087239 146.260199,20.9195333 146.26,20.2 C146.274286,19.1828571 146.26,18.1628571 146.26,17.1457143 C146.26323,16.6850228 146.139675,16.2323192 145.902857,15.8371429 C145.419095,14.9758997 144.495839,14.4558798 143.508571,14.4885714 C140.597143,14.4885714 137.682857,14.4885714 134.768571,14.4885714 C134.577143,14.4885714 134.388571,14.4885714 134.197143,14.4714286 C133.28679,14.4467162 132.508077,13.8101214 132.302857,12.9228571 C132.24756,12.7304439 132.217781,12.5315996 132.214286,12.3314286 C132.214286,11.6542857 132.214286,10.98 132.214286,10.3028571 C132.21894,10.0550242 132.261331,9.80934745 132.34,9.57428571 C132.521037,8.92664895 133.03046,8.42265633 133.68,8.24857143 C133.991229,8.16057101 134.313778,8.1191691 134.637143,8.12571429 C138.330476,8.12571429 142.024762,8.12571429 145.72,8.12571429 C145.777143,8.12571429 145.834286,8.12571429 145.891429,8.12571429 C146.131429,8.12571429 146.131429,8.12571429 146.137143,7.89714286 L146.137143,7.46857143 C146.137143,7.11142857 146.165714,7.14285714 145.817143,7.14285714 L139.828571,7.12571429 Z" id="Shape"></path>
                    <path d="M151.025714,23.7142857 L151.025714,21.3142857 L151.025714,21.1142857 C151.025714,21.02 151.065714,20.9742857 151.162857,20.9771429 L163.188571,20.9771429 C163.465171,20.9871382 163.742037,20.9670199 164.014286,20.9171429 C164.520034,20.829207 164.907392,20.4185833 164.965714,19.9085714 C165.009598,19.6251069 165.024913,19.3379527 165.011429,19.0514286 C165.031456,18.5196314 165.01714,17.987096 164.968571,17.4571429 C164.927004,16.9111307 164.503983,16.4713335 163.96,16.4085714 C163.734406,16.3699226 163.50602,16.3498552 163.277143,16.3485714 C160.334286,16.3485714 157.391429,16.3485714 154.448571,16.3485714 C153.210887,16.3721839 152.056585,15.7267796 151.428571,14.66 C151.090731,14.1363874 150.91208,13.5259956 150.914286,12.9028571 C150.914286,11.8457143 150.9,10.7885714 150.914286,9.73142857 C150.952295,8.00586082 152.227314,6.55834631 153.934286,6.30285714 C154.132464,6.28003784 154.332022,6.27144442 154.531429,6.27714286 C158.742857,6.27714286 162.952381,6.27714286 167.16,6.27714286 L167.302857,6.27714286 C167.422857,6.27714286 167.482857,6.32 167.471429,6.44285714 L167.471429,6.5 C167.471429,7.25142857 167.471429,8.00285714 167.471429,8.75714286 C167.471429,8.96285714 167.471429,8.96285714 167.268571,8.97142857 L155.182857,8.97142857 C154.944995,8.96370885 154.707074,8.98481479 154.474286,9.03428571 C154.036868,9.12913549 153.699025,9.47711289 153.617143,9.91714286 C153.574143,10.0930392 153.551141,10.273228 153.548571,10.4542857 C153.548571,11.0257143 153.548571,11.5971429 153.548571,12.1685714 C153.54786,12.3019927 153.561268,12.4351147 153.588571,12.5657143 C153.656073,13.1625888 154.165091,13.611068 154.765714,13.6028571 C154.937143,13.6028571 155.108571,13.6028571 155.28,13.6028571 L164.022857,13.6028571 C165.609518,13.588119 167.011523,14.6326124 167.451429,16.1571429 C167.543167,16.4670528 167.591249,16.7882399 167.594286,17.1114286 C167.594286,18.14 167.594286,19.1685714 167.594286,20.1971429 C167.583151,21.9141887 166.334767,23.3726479 164.64,23.6485714 C164.592444,23.6487573 164.547029,23.6683682 164.514286,23.7028571 L151.025714,23.7142857 Z M158.168571,22.8571429 C160.111429,22.8571429 162.054286,22.8571429 163.997143,22.8571429 C164.726306,22.8712904 165.429744,22.5876653 165.945168,22.0717025 C166.460592,21.5557396 166.743481,20.8520052 166.728571,20.1228571 C166.728571,19.1419048 166.728571,18.1609524 166.728571,17.18 C166.73538,16.73091 166.625093,16.2877913 166.408571,15.8942857 C165.940727,14.9869385 164.991687,14.4306432 163.971429,14.4657143 C161.045714,14.4657143 158.122857,14.4657143 155.2,14.4657143 C154.90466,14.4744817 154.60931,14.4485907 154.32,14.3885714 C153.567134,14.2535553 152.965206,13.6863749 152.785714,12.9428571 C152.718124,12.7145102 152.681605,12.4780983 152.677143,12.24 L152.677143,10.3542857 C152.682216,10.1737349 152.70325,9.99398683 152.74,9.81714286 C152.872403,8.95851845 153.549057,8.28649834 154.408571,8.16 C154.6517,8.11569459 154.898621,8.09559635 155.145714,8.1 C158.840952,8.1 162.53619,8.1 166.231429,8.1 C166.308571,8.1 166.382857,8.1 166.46,8.1 C166.537143,8.1 166.614286,8.06 166.611429,7.94857143 C166.611429,7.72 166.611429,7.49142857 166.611429,7.26285714 C166.611429,7.15142857 166.568571,7.10857143 166.46,7.11428571 L154.571429,7.11428571 C154.371659,7.10805777 154.171744,7.12049267 153.974286,7.15142857 C152.694092,7.38136534 151.763236,8.49646545 151.765714,9.79714286 C151.765714,10.7971429 151.765714,11.7971429 151.765714,12.7971429 C151.765001,13.0257911 151.794788,13.2535131 151.854286,13.4742857 C152.154835,14.6603423 153.227948,15.4867221 154.451429,15.4742857 C157.384762,15.4742857 160.318095,15.4742857 163.251429,15.4742857 C163.508594,15.473781 163.765458,15.4919238 164.02,15.5285714 C164.980635,15.6200382 165.738975,16.3843868 165.822857,17.3457143 C165.872383,17.9815752 165.887643,18.6196413 165.868571,19.2571429 C165.874387,19.50487 165.85717,19.7526016 165.817143,19.9971429 C165.724671,20.8387539 165.106583,21.5280713 164.28,21.7114286 C163.936454,21.7912746 163.583942,21.8258535 163.231429,21.8142857 C159.574286,21.8142857 155.917143,21.8142857 152.26,21.8142857 C152.182857,21.8142857 152.108571,21.8142857 152.031429,21.8142857 C151.954286,21.8142857 151.88,21.86 151.882857,21.9685714 C151.882857,22.1571429 151.882857,22.3485714 151.882857,22.54 C151.882857,22.8685714 151.854286,22.8257143 152.194286,22.8257143 L158.168571,22.8571429 Z" id="Shape"></path>
                    <path d="M179.085714,21.8314286 L175.685714,21.8314286 C175.362803,21.8380928 175.04032,21.8045008 174.725714,21.7314286 C173.908548,21.5505538 173.295956,20.8714253 173.2,20.04 C173.160895,19.814506 173.141773,19.586 173.142857,19.3571429 C173.142857,18.1685714 173.142857,16.9790476 173.142857,15.7885714 C173.141203,15.5218618 173.167054,15.2556924 173.22,14.9942857 C173.374811,14.0458936 174.182225,13.3416556 175.142857,13.3171429 C175.314286,13.3171429 175.485714,13.3 175.657143,13.3 L182.514286,13.3 C182.962496,13.2948396 183.408782,13.359421 183.837143,13.4914286 C185.113685,13.8731371 186.092282,14.9028389 186.408571,16.1971429 C186.470509,16.4174822 186.501284,16.6454101 186.5,16.8742857 C186.5,17.2628571 186.5,17.6542857 186.5,18.0428571 C186.477143,19.6771429 185.685714,20.8114286 184.214286,21.5 C183.747313,21.7180691 183.238238,21.8311967 182.722857,21.8314286 L179.085714,21.8314286 Z M179.085714,14.16 L175.714286,14.16 C175.551429,14.16 175.388571,14.16 175.228571,14.16 C174.652729,14.1590911 174.160756,14.5749109 174.065714,15.1428571 C174.023414,15.3497444 174.001405,15.5602659 174,15.7714286 C174,16.9828571 174,18.192381 174,19.4 C174.001612,19.599816 174.023631,19.7989448 174.065714,19.9942857 C174.138771,20.4427716 174.478769,20.8009029 174.922857,20.8971429 C175.11703,20.9471783 175.31663,20.9730879 175.517143,20.9742857 L182.66,20.9742857 C183.070189,20.9726279 183.476026,20.8901014 183.854286,20.7314286 C184.949169,20.2981213 185.666086,19.2374924 185.66,18.06 C185.66,17.7 185.66,17.3371429 185.66,16.9771429 C185.651271,16.1239554 185.244353,15.3238598 184.56,14.8142857 C184.010146,14.3756047 183.323178,14.1449292 182.62,14.1628571 L179.085714,14.16 Z" id="Shape"></path>
                    <path d="M174.454286,23.7142857 C174.382857,23.6314286 174.277143,23.6628571 174.188571,23.6428571 C172.70255,23.3212536 171.590075,22.0832504 171.428571,20.5714286 C171.408571,20.36 171.394286,20.1542857 171.394286,19.9428571 C171.394286,18.2971429 171.394286,16.6514286 171.394286,15.0028571 C171.371743,13.1788718 172.754944,11.6439169 174.571429,11.4771429 C174.837244,11.4509307 175.104376,11.4404362 175.371429,11.4457143 L182.482857,11.4457143 C183.524915,11.4181109 184.55369,11.6844637 185.451429,12.2142857 C185.484162,12.2351801 185.518565,12.253337 185.554286,12.2685714 C185.572104,12.2730466 185.590753,12.2730466 185.608571,12.2685714 C185.682857,12.2257143 185.654286,12.1514286 185.654286,12.0914286 C185.654286,11.3971429 185.654286,10.7 185.654286,10.0057143 C185.651413,9.81265805 185.62454,9.62070861 185.574286,9.43428571 C185.478958,8.98325012 185.113149,8.6390941 184.657143,8.57142857 C184.469468,8.5300704 184.277892,8.50899707 184.085714,8.50857143 C182.877143,8.50857143 181.668571,8.50857143 180.46,8.48857143 C177.688571,8.44 174.92,8.46 172.151429,8.43428571 C171.88,8.43428571 171.865714,8.43428571 171.865714,8.17142857 L171.865714,6.02857143 C171.865714,5.77142857 171.865714,5.76857143 172.151429,5.76857143 L177.948571,5.76857143 C180.194286,5.76857143 182.442857,5.76857143 184.688571,5.76857143 C186.314121,5.77286194 187.739458,6.85527827 188.18,8.42 C188.22,8.56571429 188.18,8.72571429 188.277143,8.85428571 L188.277143,20.6857143 C188.191429,20.7742857 188.234286,20.8857143 188.234286,20.9714286 C188.234286,21.7885714 188.234286,22.6057143 188.234286,23.4228571 C188.234286,23.5371429 188.254286,23.6542857 188.071429,23.6514286 C187.32,23.6514286 186.568571,23.6514286 185.82,23.6514286 C185.668571,23.6514286 185.651429,23.58 185.648571,23.4571429 C185.664593,23.2980561 185.658825,23.1375269 185.631429,22.98 C185.575263,22.963351 185.514509,22.9750755 185.468571,23.0114286 C185.007736,23.2634351 184.513195,23.4481664 184,23.56 C183.731429,23.6142857 183.462857,23.6628571 183.194286,23.7142857 L174.454286,23.7142857 Z M186.505714,14.1828571 C186.414286,14.1114286 186.362857,14.0742857 186.314286,14.0314286 L185.788571,13.5485714 C184.928239,12.7335056 183.782052,12.2891912 182.597143,12.3114286 L177.74,12.3114286 C176.805714,12.3114286 175.871429,12.3114286 174.94,12.3114286 C174.230063,12.2928999 173.542838,12.5624246 173.034781,13.0586415 C172.526724,13.5548585 172.241072,14.2355381 172.242857,14.9457143 C172.225714,16.6885714 172.225714,18.4304762 172.242857,20.1714286 C172.23665,20.8875973 172.519191,21.5760751 173.026692,22.0814255 C173.534193,22.586776 174.223864,22.8663912 174.94,22.8571429 C177.511429,22.8571429 180.082857,22.8571429 182.654286,22.8571429 C183.915994,22.8739442 185.136409,22.4078557 186.065714,21.5542857 C186.191429,21.4457143 186.322857,21.3428571 186.457143,21.2342857 C186.506681,21.3059221 186.52427,21.3949033 186.505714,21.48 C186.505714,21.8609524 186.505714,22.2419048 186.505714,22.6228571 C186.505714,22.7457143 186.505714,22.8228571 186.671429,22.8142857 C186.837143,22.8057143 187.071429,22.8142857 187.271429,22.8142857 C187.357143,22.8142857 187.422857,22.7971429 187.417143,22.6885714 C187.417143,22.6428571 187.417143,22.5942857 187.417143,22.5457143 C187.417143,18.1685714 187.417143,13.7885714 187.448571,9.40285714 C187.445547,8.66328009 187.148847,7.95519649 186.623743,7.43437984 C186.09864,6.91356318 185.388148,6.62267702 184.648571,6.62571429 C182.697143,6.64571429 180.745714,6.62571429 178.794286,6.62571429 L172.994286,6.62571429 C172.742857,6.62571429 172.742857,6.62571429 172.74,6.86857143 L172.74,7.32571429 C172.74,7.57142857 172.74,7.57428571 172.988571,7.57428571 L179.957143,7.62285714 C181.194286,7.62285714 182.434286,7.62285714 183.671429,7.64571429 C184.022908,7.63330981 184.374792,7.65243395 184.722857,7.70285714 C185.512066,7.80290429 186.164763,8.3655738 186.38,9.13142857 C186.45759,9.3774639 186.498976,9.63347796 186.502857,9.89142857 C186.508571,11.3057143 186.505714,12.7142857 186.505714,14.1828571 Z" id="Shape"></path>
                </g>
            </g>
        </g>
    </g>
</svg>