<?xml version="1.0" encoding="UTF-8" standalone="no"?>
<svg width="20px" height="20px" viewBox="0 0 20 20" version="1.1" xmlns="http://www.w3.org/2000/svg" xmlns:xlink="http://www.w3.org/1999/xlink">
    <!-- Generator: Sketch 50.2 (55047) - http://www.bohemiancoding.com/sketch -->
    <title>search</title>
    <desc>Created with Sketch.</desc>
    <defs></defs>
    <g id="Welcome" stroke="none" stroke-width="1" fill="none" fill-rule="evenodd">
        <g id="iPhone-8" transform="translate(-268.000000, -18.000000)" fill="#F1E1C7" fill-rule="nonzero">
            <g id="header">
                <g id="search" transform="translate(268.000000, 18.000000)">
                    <path d="M7.81119465,15.7142857 C3.55054302,15.7142857 0,12.1428571 0,7.85714286 C0,3.57142857 3.55054302,0 7.81119465,0 C12.0718463,0 15.6223893,3.57142857 15.6223893,7.85714286 C15.6223893,12.1428571 12.0718463,15.7142857 7.81119465,15.7142857 Z M7.81119465,1.42857143 C4.26065163,1.42857143 1.42021721,4.28571429 1.42021721,7.85714286 C1.42021721,11.4285714 4.26065163,14.2857143 7.81119465,14.2857143 C11.3617377,14.2857143 14.2021721,11.4285714 14.2021721,7.85714286 C14.2021721,4.28571429 11.3617377,1.42857143 7.81119465,1.42857143 Z" id="Shape"></path>
                    <path d="M13.4920635,12.5714286 L19.7410192,18.8571429 C20.0250627,19.1428571 20.0250627,19.5714286 19.7410192,19.8571429 C19.5989975,20 19.3149541,20 19.1729323,20 C19.0309106,20 18.7468672,20 18.6048454,19.8571429 L12.3558897,13.5714286 L13.4920635,12.5714286 Z" id="Shape"></path>
                </g>
            </g>
        </g>
    </g>
</svg>